<svg width="531" height="278" viewBox="0 0 531 278" fill="none" xmlns="http://www.w3.org/2000/svg">
<path d="M515.513 1.51192C519.828 -1.11106 525.423 -0.104237 528.553 3.85855C531.684 7.82147 531.369 13.4971 527.818 17.0885L346.42 200.564L442.149 257.263C446.901 260.078 448.471 266.211 445.657 270.963C442.842 275.715 436.709 277.286 431.957 274.472L331.925 215.225L273.948 273.868C270.065 277.796 263.733 277.832 259.806 273.949L201.163 215.97L101.814 276.353C97.0944 279.221 90.9433 277.72 88.0748 273.001C85.2065 268.281 86.7068 262.13 91.4263 259.261L186.502 201.476L3.02599 20.0786C-0.565431 16.5279 -0.94521 10.8562 2.1401 6.85787C5.22535 2.85983 10.8072 1.7895 15.1525 4.36279L266.187 153.045L515.513 1.51192ZM218.78 205.263L266.755 252.695L314.188 204.719L266.321 176.369L218.78 205.263ZM204.12 190.769L246.818 164.818L74.8535 62.967L204.12 190.769ZM285.691 164.596L328.681 190.059L456.483 60.7926L285.691 164.596Z" fill="white"/>
</svg>
